<svg xmlns="http://www.w3.org/2000/svg" width="32" height="32" viewBox="0 0 32 32">
  <g id="Group_28061" data-name="Group 28061" transform="translate(-222 -741)">
    <rect id="Rectangle_5922" data-name="Rectangle 5922" width="32" height="32" transform="translate(222 741)" fill="none"/>
    <g id="Group_28060" data-name="Group 28060" transform="translate(224.668 745)">
      <path id="Path_233317" data-name="Path 233317" d="M25.083,5.573V21.427a2.741,2.741,0,0,1-2.347,2.64l-.413.053a34.142,34.142,0,0,0-7.747,2.24,1.33,1.33,0,0,1-1.827-1.24V6.573a1.36,1.36,0,0,1,.72-1.187A25.585,25.585,0,0,1,22.11,2.68h.08A2.891,2.891,0,0,1,25.083,5.573Z" transform="translate(1.596 -2.68)" fill="#3a9679"/>
      <path id="Path_233318" data-name="Path 233318" d="M13.617,5.387A25.584,25.584,0,0,0,4.977,2.68H4.884A2.891,2.891,0,0,0,1.99,5.573V21.427a2.741,2.741,0,0,0,2.347,2.64l.413.053A34.142,34.142,0,0,1,12.5,26.36a1.33,1.33,0,0,0,1.827-1.24V6.573A1.332,1.332,0,0,0,13.617,5.387ZM6,9.427H9a1,1,0,0,1,0,2H6a1,1,0,1,1,0-2Zm4,6H6a1,1,0,0,1,0-2h4a1,1,0,0,1,0,2Z" transform="translate(-1.99 -2.68)" fill="#3a9679"/>
    </g>
  </g>
</svg>
