<svg xmlns="http://www.w3.org/2000/svg" width="32" height="32" viewBox="0 0 32 32">
  <g id="Group_28064" data-name="Group 28064" transform="translate(-222 -741)">
    <rect id="Rectangle_5923" data-name="Rectangle 5923" width="32" height="32" transform="translate(222 741)" fill="none"/>
    <g id="Group_28063" data-name="Group 28063" transform="translate(224.668 743.666)">
      <path id="Path_233319" data-name="Path 233319" d="M3,24.183a1.007,1.007,0,0,1-1-1v-7.6A13.208,13.208,0,0,1,15.267,2.05a13.418,13.418,0,0,1,13.4,13.4v7.6a1,1,0,1,1-2,0v-7.6a11.412,11.412,0,0,0-11.4-11.4A11.2,11.2,0,0,0,4,15.557V23.17A1,1,0,0,1,3,24.183Z" transform="translate(-1.998 -2.05)" fill="#3a9679"/>
      <path id="Path_233320" data-name="Path 233320" d="M7.253,12.45H7.08A5.087,5.087,0,0,0,2,17.53v2.507a5.087,5.087,0,0,0,5.08,5.08h.173a5.087,5.087,0,0,0,5.08-5.08V17.53A5.087,5.087,0,0,0,7.253,12.45Z" transform="translate(-1.997 1.417)" fill="#3a9679"/>
      <path id="Path_233321" data-name="Path 233321" d="M19.5,12.45H19.33a5.087,5.087,0,0,0-5.08,5.08v2.507a5.087,5.087,0,0,0,5.08,5.08H19.5a5.087,5.087,0,0,0,5.08-5.08V17.53A5.087,5.087,0,0,0,19.5,12.45Z" transform="translate(2.086 1.417)" fill="#3a9679"/>
    </g>
  </g>
</svg>
