<svg xmlns="http://www.w3.org/2000/svg" width="32" height="32" viewBox="0 0 32 32">
  <g id="Group_114539" data-name="Group 114539" transform="translate(-61 -17)">
    <rect id="Rectangle_5903" data-name="Rectangle 5903" width="32" height="32" transform="translate(61 17)" fill="none"/>
    <g id="Group_27414" data-name="Group 27414" transform="translate(66.333 19.667)">
      <path id="Path_169359" data-name="Path 169359" d="M26.167,64.333v3.333A4.672,4.672,0,0,1,21.5,72.333H8.167A4.672,4.672,0,0,1,3.5,67.667V66.8A3.807,3.807,0,0,1,7.3,63H24.833A1.337,1.337,0,0,1,26.167,64.333Z" transform="translate(-3.5 -45.667)"/>
      <path id="Path_169360" data-name="Path 169360" d="M19.5,50H10.167C4.833,50,3.5,51.333,3.5,56.667V66.773a5.737,5.737,0,0,1,3.8-1.44H24.833A1.337,1.337,0,0,0,26.167,64V56.667C26.167,51.333,24.833,50,19.5,50ZM16.167,61.667H9.5a1,1,0,0,1,0-2h6.667a1,1,0,0,1,0,2Zm4-4.667H9.5a1,1,0,0,1,0-2H20.167a1,1,0,1,1,0,2Z" transform="translate(-3.5 -50)"/>
    </g>
  </g>
</svg>
