<svg xmlns="http://www.w3.org/2000/svg" width="32" height="32" viewBox="0 0 32 32">
  <g id="Group_114538" data-name="Group 114538" transform="translate(-61 -17)">
    <rect id="Rectangle_5903" data-name="Rectangle 5903" width="32" height="32" transform="translate(61 17)" fill="none"/>
    <g id="Group_28549" data-name="Group 28549" transform="translate(62.333 18.333)">
      <path id="Path_233525" data-name="Path 233525" d="M13.571,1H5.19A4.185,4.185,0,0,0,1,5.19v8.381a4.185,4.185,0,0,0,4.19,4.19h6.286a6.3,6.3,0,0,1,6.286-6.286V5.19A4.185,4.185,0,0,0,13.571,1Zm-8.7,4.568A3.2,3.2,0,0,1,8.515,5.54,1.046,1.046,0,0,1,7.342,7.272a1.091,1.091,0,0,0-1.271.014,1.048,1.048,0,0,1-1.2-1.718Zm7.683,5.545a1.032,1.032,0,0,1-1.467.168,2.7,2.7,0,0,0-1.7-.6,2.735,2.735,0,0,0-2.71,2.43H9.6a1.048,1.048,0,0,1,0,2.1H6.364a1.806,1.806,0,0,1-1.8-1.8A4.819,4.819,0,0,1,12.4,9.646,1.043,1.043,0,0,1,12.552,11.113Zm1.83-4.121a1.052,1.052,0,0,1-1.453.279,1.091,1.091,0,0,0-1.271.014,1.048,1.048,0,0,1-1.2-1.718A3.2,3.2,0,0,1,14.1,5.54,1.052,1.052,0,0,1,14.382,6.992Z" transform="translate(-1 -1)"/>
      <path id="Path_233526" data-name="Path 233526" d="M20.02,16.728a.507.507,0,0,0-.391-.168h-5.42a.507.507,0,0,0-.391.168.491.491,0,0,0-.126.405,3.244,3.244,0,0,0,6.453,0A.526.526,0,0,0,20.02,16.728Z" transform="translate(4.034 5.175)"/>
      <path id="Path_233527" data-name="Path 233527" d="M22.571,10H14.19A4.2,4.2,0,0,0,10,14.19v8.381a4.2,4.2,0,0,0,4.19,4.19h8.381a4.2,4.2,0,0,0,4.19-4.19V14.19A4.2,4.2,0,0,0,22.571,10Zm-8.954,4.428a1.052,1.052,0,0,1,1.467-.251,1.116,1.116,0,0,0,1.257.014,1.027,1.027,0,0,1,1.453.279,1.039,1.039,0,0,1-.279,1.453,3.261,3.261,0,0,1-1.8.559,3.146,3.146,0,0,1-1.844-.587A1.056,1.056,0,0,1,13.618,14.428Zm4.763,9.778a4.829,4.829,0,0,1-4.819-4.819,1.806,1.806,0,0,1,1.8-1.8H21.4a1.806,1.806,0,0,1,1.8,1.8A4.829,4.829,0,0,1,18.381,24.206Zm4.721-8.3a3.261,3.261,0,0,1-1.8.559,3.146,3.146,0,0,1-1.844-.587,1.052,1.052,0,1,1,1.215-1.718,1.116,1.116,0,0,0,1.257.014,1.027,1.027,0,0,1,1.453.279A1.049,1.049,0,0,1,23.1,15.909Z" transform="translate(2.571 2.571)"/>
    </g>
  </g>
</svg>
