<svg xmlns="http://www.w3.org/2000/svg" width="32" height="32" viewBox="0 0 32 32">
  <g id="Group_114537" data-name="Group 114537" transform="translate(-948 -1218)">
    <rect id="Rectangle_2692" data-name="Rectangle 2692" width="32" height="32" transform="translate(948 1218)" fill="none"/>
    <path id="Path_169374" data-name="Path 169374" d="M21.122,16.918a3.871,3.871,0,0,0-2.367.816l-6.2-3.429a4.11,4.11,0,0,0,.2-1.265,4.322,4.322,0,0,0-.2-1.265l6.531-3.633a4.055,4.055,0,0,0,2.041.571A3.9,3.9,0,0,0,25,4.837a3.878,3.878,0,0,0-7.755.041,3.543,3.543,0,0,0,.408,1.714L11.408,10.1a3.732,3.732,0,0,0-2.531-.939,3.878,3.878,0,1,0,0,7.755,3.807,3.807,0,0,0,2.531-.939l6.122,3.388a4.24,4.24,0,0,0-.286,1.429,3.878,3.878,0,1,0,3.878-3.878Z" transform="translate(948 1220.779)"/>
  </g>
</svg>
