<svg xmlns="http://www.w3.org/2000/svg" width="32" height="33" viewBox="0 0 32 33">
  <g id="Group_26887" data-name="Group 26887" transform="translate(-0.23 0.461)">
    <rect id="Rectangle_2694" data-name="Rectangle 2694" width="32" height="33" transform="translate(0.23 -0.461)" fill="none"/>
    <g id="Group_27120" data-name="Group 27120" transform="translate(2.719 4.077)">
      <path id="Path_169076" data-name="Path 169076" d="M25.321,5.629V21.787a2.794,2.794,0,0,1-2.392,2.691l-.421.054a34.8,34.8,0,0,0-7.9,2.283,1.356,1.356,0,0,1-1.862-1.264V6.648a1.386,1.386,0,0,1,.734-1.209A26.077,26.077,0,0,1,22.29,2.68h.082A2.946,2.946,0,0,1,25.321,5.629Z" transform="translate(1.872 -2.68)" fill="#fff"/>
      <path id="Path_169077" data-name="Path 169077" d="M13.84,5.439A26.076,26.076,0,0,0,5.034,2.68h-.1A2.946,2.946,0,0,0,1.99,5.629V21.787a2.794,2.794,0,0,0,2.392,2.691l.421.054a34.8,34.8,0,0,1,7.9,2.283,1.356,1.356,0,0,0,1.862-1.264V6.648A1.358,1.358,0,0,0,13.84,5.439ZM6.081,9.556H9.138a1.019,1.019,0,1,1,0,2.038H6.081a1.019,1.019,0,1,1,0-2.038Zm4.077,6.115H6.081a1.019,1.019,0,1,1,0-2.038h4.077a1.019,1.019,0,1,1,0,2.038Z" transform="translate(-1.99 -2.68)" fill="#fff"/>
    </g>
  </g>
</svg>
